<svg xmlns="http://www.w3.org/2000/svg" width="64" height="64" viewBox="0 0 64 64" role="img" aria-label="SPM AI">
  <defs>
    <linearGradient id="g" x1="0" y1="0" x2="1" y2="1">
      <stop offset="0" stop-color="#3470f4"/>
      <stop offset="1" stop-color="#1f50e0"/>
    </linearGradient>
  </defs>
  <rect width="64" height="64" rx="16" fill="url(#g)"/>
  <g fill="#ffffff">
    <path d="M32 15 L52 24 L32 33 L12 24 Z"/>
    <path d="M19 30 v12 c0 4 4 7 9 9 l4 1 v-12 l-4-1 c-4-2-7-5-9-9 Z" opacity="0.95"/>
    <path d="M45 30 v12 c0 4-4 7-9 9 l-4 1 v-12 l4-1 c4-2 7-5 9-9 Z" opacity="0.8"/>
  </g>
  <path fill="#ffd84d" d="M45 38 l3 7 7 3 -7 3 -3 7 -3-7 -7-3 7-3 Z"/>
</svg>
